<svg xmlns="http://www.w3.org/2000/svg" version="1.1" xmlns:xlink="http://www.w3.org/1999/xlink" xmlns:svgjs="http://svgjs.dev/svgjs" width="1000" height="1000" viewBox="0 0 1000 1000"><rect width="1000" height="1000" fill="#ff5858"></rect><g transform="matrix(0.7,0,0,0.7,149.57575757575756,282.1265587044535)"><svg viewBox="0 0 396 247" data-background-color="#ff5858" preserveAspectRatio="xMidYMid meet" height="623" width="1000" xmlns="http://www.w3.org/2000/svg" xmlns:xlink="http://www.w3.org/1999/xlink"><g id="tight-bounds" transform="matrix(1,0,0,1,0.2400000000000091,-0.09999999999999432)"><svg viewBox="0 0 395.52 247.2" height="247.2" width="395.52"><g><svg></svg></g><g><svg viewBox="0 0 395.52 247.2" height="247.2" width="395.52"><mask id="c4e48d68-78f8-4601-94f8-a10e9326e97d"><rect width="395.52" height="247.2" fill="white"></rect><g transform="matrix(1,0,0,1,118.6796178343949,37.08)" id="clone"><svg viewBox="0 0 158.16076433121017 173.04" height="173.04" width="158.16076433121017"><g><svg viewBox="0 0 158.16076433121017 173.04" height="173.04" width="158.16076433121017"><g><svg viewBox="0 0 158.16076433121017 173.04" height="173.04" width="158.16076433121017"><g><svg viewBox="0 0 158.16076433121017 173.04" height="173.04" width="158.16076433121017"><g id="SvgjsG1110"><svg viewBox="0 0 158.16076433121017 173.04" height="173.04" width="158.16076433121017" id="SvgjsSvg1109"><g><svg viewBox="0 0 158.16076433121017 173.04" height="173.04" width="158.16076433121017"><g transform="matrix(1,0,0,1,0,0)"><svg width="158.16076433121017" viewBox="0.04999995231628418 -28.799999237060547 29.700000762939453 32.39999961853027" height="173.04" data-palette-color="#ffffff"><path d="M19.35 0L19.35-4.7 19.05-4.7Q18.2-2.5 16.38-0.95 14.55 0.6 11.45 0.6L11.45 0.6Q9.6 0.6 8.05-0.03 6.5-0.65 5.4-1.9 4.3-3.15 3.68-4.95 3.05-6.75 3.05-9.1L3.05-9.1 3.05-25.8 10.45-25.8 10.45-10.1Q10.45-5.1 14.8-5.1L14.8-5.1Q15.65-5.1 16.48-5.33 17.3-5.55 17.93-6.03 18.55-6.5 18.95-7.2 19.35-7.9 19.35-8.85L19.35-8.85 19.35-25.8 26.75-25.8 26.75 0 19.35 0Z" opacity="1" transform="matrix(1,0,0,1,0,0)" fill="black" class="wordmark-text-0" id="SvgjsPath1108" stroke-width="5" stroke="black" stroke-linejoin="round"></path></svg></g></svg></g></svg></g></svg></g></svg></g></svg></g></svg></g></mask><g mask="url(#c4e48d68-78f8-4601-94f8-a10e9326e97d)"><g><path xmlns="http://www.w3.org/2000/svg" d="M118.925 9.369h48.266v142.226c0 7.079 0.279 13.558 0.837 19.435 0.515 5.921 1.802 10.919 3.861 14.995 2.016 4.076 5.063 7.229 9.139 9.46 4.076 2.274 9.653 3.411 16.732 3.411v0c7.079 0 12.657-1.137 16.732-3.411 4.076-2.231 7.143-5.384 9.203-9.46 2.016-4.076 3.304-9.074 3.862-14.995 0.515-5.878 0.772-12.356 0.772-19.435v0-142.226h48.266v135.79c0 15.445-1.008 28.96-3.024 40.544-2.059 11.584-5.985 21.237-11.777 28.96-5.792 7.723-13.836 13.515-24.134 17.376-10.297 3.861-23.597 5.792-39.9 5.792v0c-16.303 0-29.603-1.931-39.9-5.792-10.297-3.861-18.341-9.653-24.134-17.376-5.792-7.723-9.696-17.376-11.712-28.96-2.059-11.584-3.089-25.099-3.089-40.544v0z" fill="#ffffff" fill-rule="nonzero" stroke="none" stroke-width="1" stroke-linecap="butt" stroke-linejoin="miter" stroke-miterlimit="10" stroke-dasharray="" stroke-dashoffset="0" font-family="none" font-weight="none" font-size="none" text-anchor="none" style="mix-blend-mode: normal" data-fill-palette-color="tertiary"></path></g></g><g transform="matrix(1,0,0,1,118.6796178343949,37.08)"><svg viewBox="0 0 158.16076433121017 173.04" height="173.04" width="158.16076433121017"><g><svg viewBox="0 0 158.16076433121017 173.04" height="173.04" width="158.16076433121017"><g><svg viewBox="0 0 158.16076433121017 173.04" height="173.04" width="158.16076433121017"><g><svg viewBox="0 0 158.16076433121017 173.04" height="173.04" width="158.16076433121017"><g id="textblocktransform"><svg viewBox="0 0 158.16076433121017 173.04" height="173.04" width="158.16076433121017" id="textblock"><g><svg viewBox="0 0 158.16076433121017 173.04" height="173.04" width="158.16076433121017"><g transform="matrix(1,0,0,1,0,0)"><svg width="158.16076433121017" viewBox="0.04999995231628418 -28.799999237060547 29.700000762939453 32.39999961853027" height="173.04" data-palette-color="#ffffff"><path d="M19.35 0L19.35-4.7 19.05-4.7Q18.2-2.5 16.38-0.95 14.55 0.6 11.45 0.6L11.45 0.6Q9.6 0.6 8.05-0.03 6.5-0.65 5.4-1.9 4.3-3.15 3.68-4.95 3.05-6.75 3.05-9.1L3.05-9.1 3.05-25.8 10.45-25.8 10.45-10.1Q10.45-5.1 14.8-5.1L14.8-5.1Q15.65-5.1 16.48-5.33 17.3-5.55 17.93-6.03 18.55-6.5 18.95-7.2 19.35-7.9 19.35-8.85L19.35-8.85 19.35-25.8 26.75-25.8 26.75 0 19.35 0Z" opacity="1" transform="matrix(1,0,0,1,0,0)" fill="#ffffff" class="wordmark-text-0" data-fill-palette-color="primary" id="text-0"></path></svg></g></svg></g></svg></g></svg></g></svg></g></svg></g></svg></g></svg></g><defs></defs></svg><rect width="395.52" height="247.2" fill="none" stroke="none" visibility="hidden"></rect></g></svg></g></svg>